<svg width="96px" height="48px" viewBox="0 0 780 300" fill="none" xmlns="http://www.w3.org/2000/svg">
<path d="M306.79 109.11C300.85 109.11 295.277 107.973 290.07 105.7C284.937 103.427 280.39 100.273 276.43 96.24C272.543 92.1333 269.5 87.44 267.3 82.16C265.1 76.8067 264 71.0867 264 65C264 58.9867 265.063 53.34 267.19 48.06C269.39 42.7067 272.433 38.0133 276.32 33.98C280.28 29.9467 284.827 26.7933 289.96 24.52C295.167 22.1733 300.777 21 306.79 21C312.07 21 316.873 21.77 321.2 23.31C325.527 24.85 329.707 27.3067 333.74 30.68C334.4 31.1933 334.767 31.8167 334.84 32.55C334.987 33.21 334.913 33.87 334.62 34.53C334.327 35.1167 333.887 35.5567 333.3 35.85C333.153 36.4367 332.787 36.8767 332.2 37.17C331.613 37.4633 330.917 37.5733 330.11 37.5C329.377 37.4267 328.643 37.0967 327.91 36.51C325.05 34.0167 321.933 32.1833 318.56 31.01C315.187 29.7633 311.263 29.14 306.79 29.14C302.023 29.14 297.55 30.0933 293.37 32C289.263 33.9067 285.633 36.51 282.48 39.81C279.327 43.11 276.833 46.9233 275 51.25C273.24 55.5767 272.36 60.16 272.36 65C272.36 69.9867 273.24 74.6433 275 78.97C276.833 83.2967 279.327 87.11 282.48 90.41C285.633 93.71 289.263 96.3133 293.37 98.22C297.55 100.053 302.023 100.97 306.79 100.97C310.823 100.97 314.637 100.31 318.23 98.99C321.823 97.67 325.233 95.7633 328.46 93.27C329.34 92.5367 330.257 92.2433 331.21 92.39C332.237 92.5367 333.117 92.9767 333.85 93.71C334.583 94.4433 334.95 95.3967 334.95 96.57C334.95 97.1567 334.84 97.7067 334.62 98.22C334.473 98.66 334.18 99.1367 333.74 99.65C330 103.097 325.82 105.553 321.2 107.02C316.58 108.413 311.777 109.11 306.79 109.11Z" fill="black"/>
<path d="M374.499 108.56C368.633 108.56 363.389 107.24 358.769 104.6C354.149 101.96 350.519 98.33 347.879 93.71C345.239 89.09 343.919 83.8467 343.919 77.98C343.919 72.04 345.239 66.76 347.879 62.14C350.519 57.52 354.149 53.89 358.769 51.25C363.389 48.61 368.633 47.29 374.499 47.29C380.366 47.29 385.573 48.61 390.119 51.25C394.739 53.89 398.369 57.52 401.009 62.14C403.649 66.76 405.006 72.04 405.079 77.98C405.079 83.8467 403.723 89.09 401.009 93.71C398.369 98.33 394.739 101.96 390.119 104.6C385.573 107.24 380.366 108.56 374.499 108.56ZM374.499 100.86C378.753 100.86 382.566 99.87 385.939 97.89C389.313 95.91 391.953 93.1967 393.859 89.75C395.766 86.3033 396.719 82.38 396.719 77.98C396.719 73.58 395.766 69.6567 393.859 66.21C391.953 62.69 389.313 59.94 385.939 57.96C382.566 55.98 378.753 54.99 374.499 54.99C370.246 54.99 366.433 55.98 363.059 57.96C359.686 59.94 357.009 62.69 355.029 66.21C353.123 69.6567 352.169 73.58 352.169 77.98C352.169 82.38 353.123 86.3033 355.029 89.75C357.009 93.1967 359.686 95.91 363.059 97.89C366.433 99.87 370.246 100.86 374.499 100.86Z" fill="black"/>
<path d="M473.143 108.01C471.896 108.01 470.869 107.607 470.063 106.8C469.256 105.993 468.853 105.003 468.853 103.83V75.23C468.853 70.6833 467.973 66.9433 466.213 64.01C464.526 61.0767 462.179 58.8767 459.173 57.41C456.239 55.9433 452.903 55.21 449.163 55.21C445.569 55.21 442.306 55.9067 439.373 57.3C436.513 58.6933 434.239 60.6 432.553 63.02C430.866 65.44 430.023 68.19 430.023 71.27H423.973C424.119 66.65 425.366 62.5433 427.713 58.95C430.059 55.2833 433.176 52.4233 437.063 50.37C440.949 48.2433 445.276 47.18 450.043 47.18C455.249 47.18 459.906 48.28 464.013 50.48C468.119 52.6067 471.346 55.76 473.693 59.94C476.113 64.12 477.323 69.2167 477.323 75.23V103.83C477.323 105.003 476.919 105.993 476.113 106.8C475.306 107.607 474.316 108.01 473.143 108.01ZM425.843 108.01C424.523 108.01 423.459 107.643 422.653 106.91C421.919 106.103 421.553 105.077 421.553 103.83V52.13C421.553 50.81 421.919 49.7833 422.653 49.05C423.459 48.2433 424.523 47.84 425.843 47.84C427.089 47.84 428.079 48.2433 428.813 49.05C429.619 49.7833 430.023 50.81 430.023 52.13V103.83C430.023 105.077 429.619 106.103 428.813 106.91C428.079 107.643 427.089 108.01 425.843 108.01Z" fill="black"/>
<path d="M519.536 108.01C515.649 108.01 512.166 107.093 509.086 105.26C506.079 103.427 503.696 100.933 501.936 97.78C500.176 94.5533 499.296 90.8867 499.296 86.78V32.99C499.296 31.7433 499.663 30.7167 500.396 29.91C501.203 29.1033 502.229 28.7 503.476 28.7C504.723 28.7 505.749 29.1033 506.556 29.91C507.363 30.7167 507.766 31.7433 507.766 32.99V86.78C507.766 90.52 508.866 93.6 511.066 96.02C513.266 98.3667 516.089 99.54 519.536 99.54H522.506C523.679 99.54 524.633 99.9433 525.366 100.75C526.099 101.557 526.466 102.583 526.466 103.83C526.466 105.077 526.026 106.103 525.146 106.91C524.266 107.643 523.166 108.01 521.846 108.01H519.536ZM492.146 57.41C491.046 57.41 490.129 57.08 489.396 56.42C488.663 55.6867 488.296 54.8067 488.296 53.78C488.296 52.68 488.663 51.8 489.396 51.14C490.129 50.4067 491.046 50.04 492.146 50.04H520.196C521.296 50.04 522.213 50.4067 522.946 51.14C523.679 51.8 524.046 52.68 524.046 53.78C524.046 54.8067 523.679 55.6867 522.946 56.42C522.213 57.08 521.296 57.41 520.196 57.41H492.146Z" fill="black"/>
<path d="M543.774 70.94C543.994 66.3933 545.167 62.3233 547.294 58.73C549.494 55.1367 552.317 52.3133 555.764 50.26C559.284 48.2067 563.17 47.18 567.424 47.18C570.797 47.18 573.4 47.6567 575.234 48.61C577.067 49.5633 577.764 50.9567 577.324 52.79C577.03 53.89 576.517 54.6233 575.784 54.99C575.124 55.3567 574.28 55.5033 573.254 55.43C572.3 55.3567 571.2 55.2833 569.954 55.21C565.847 54.8433 562.18 55.2833 558.954 56.53C555.8 57.7033 553.27 59.5367 551.364 62.03C549.53 64.5233 548.614 67.4933 548.614 70.94H543.774ZM544.434 108.01C543.114 108.01 542.087 107.643 541.354 106.91C540.62 106.177 540.254 105.15 540.254 103.83V52.02C540.254 50.7 540.62 49.6733 541.354 48.94C542.087 48.2067 543.114 47.84 544.434 47.84C545.754 47.84 546.78 48.2067 547.514 48.94C548.247 49.6733 548.614 50.7 548.614 52.02V103.83C548.614 105.15 548.247 106.177 547.514 106.91C546.78 107.643 545.754 108.01 544.434 108.01Z" fill="black"/>
<path d="M612.74 108.56C607.094 108.56 602.034 107.24 597.56 104.6C593.087 101.887 589.53 98.22 586.89 93.6C584.324 88.98 583.04 83.7733 583.04 77.98C583.04 72.1133 584.36 66.87 587 62.25C589.714 57.63 593.38 54 598 51.36C602.62 48.6467 607.827 47.29 613.62 47.29C619.414 47.29 624.584 48.6467 629.13 51.36C633.75 54 637.38 57.63 640.02 62.25C642.734 66.87 644.127 72.1133 644.2 77.98L640.79 80.62C640.79 85.9 639.544 90.6667 637.05 94.92C634.63 99.1 631.294 102.437 627.04 104.93C622.86 107.35 618.094 108.56 612.74 108.56ZM613.62 100.86C617.874 100.86 621.65 99.87 624.95 97.89C628.324 95.91 630.964 93.1967 632.87 89.75C634.85 86.23 635.84 82.3067 635.84 77.98C635.84 73.58 634.85 69.6567 632.87 66.21C630.964 62.7633 628.324 60.05 624.95 58.07C621.65 56.0167 617.874 54.99 613.62 54.99C609.44 54.99 605.664 56.0167 602.29 58.07C598.917 60.05 596.24 62.7633 594.26 66.21C592.28 69.6567 591.29 73.58 591.29 77.98C591.29 82.3067 592.28 86.23 594.26 89.75C596.24 93.1967 598.917 95.91 602.29 97.89C605.664 99.87 609.44 100.86 613.62 100.86ZM639.91 108.01C638.664 108.01 637.637 107.643 636.83 106.91C636.024 106.103 635.62 105.077 635.62 103.83V85.02L637.71 76.33L644.2 77.98V103.83C644.2 105.077 643.797 106.103 642.99 106.91C642.184 107.643 641.157 108.01 639.91 108.01Z" fill="black"/>
<path d="M687.514 108.56C681.72 108.56 676.55 107.24 672.004 104.6C667.53 101.887 663.974 98.22 661.334 93.6C658.767 88.98 657.484 83.7733 657.484 77.98C657.484 72.1133 658.73 66.87 661.224 62.25C663.717 57.63 667.127 54 671.454 51.36C675.78 48.6467 680.767 47.29 686.414 47.29C690.887 47.29 694.994 48.17 698.734 49.93C702.547 51.69 705.884 54.33 708.744 57.85C709.55 58.73 709.844 59.6833 709.624 60.71C709.404 61.6633 708.78 62.5067 707.754 63.24C706.947 63.8267 706.03 64.0467 705.004 63.9C704.05 63.68 703.207 63.13 702.474 62.25C698.22 57.41 692.867 54.99 686.414 54.99C682.307 54.99 678.677 55.98 675.524 57.96C672.444 59.94 670.024 62.6533 668.264 66.1C666.577 69.5467 665.734 73.5067 665.734 77.98C665.734 82.38 666.65 86.3033 668.484 89.75C670.317 93.1967 672.884 95.91 676.184 97.89C679.484 99.87 683.26 100.86 687.514 100.86C690.374 100.86 692.977 100.493 695.324 99.76C697.744 98.9533 699.87 97.7433 701.704 96.13C702.584 95.3967 703.5 94.9933 704.454 94.92C705.407 94.8467 706.287 95.14 707.094 95.8C707.974 96.6067 708.45 97.5233 708.524 98.55C708.67 99.5767 708.34 100.457 707.534 101.19C702.18 106.103 695.507 108.56 687.514 108.56Z" fill="black"/>
<path d="M749.634 108.01C745.747 108.01 742.264 107.093 739.184 105.26C736.177 103.427 733.794 100.933 732.034 97.78C730.274 94.5533 729.394 90.8867 729.394 86.78V32.99C729.394 31.7433 729.76 30.7167 730.494 29.91C731.3 29.1033 732.327 28.7 733.574 28.7C734.82 28.7 735.847 29.1033 736.654 29.91C737.46 30.7167 737.864 31.7433 737.864 32.99V86.78C737.864 90.52 738.964 93.6 741.164 96.02C743.364 98.3667 746.187 99.54 749.634 99.54H752.604C753.777 99.54 754.73 99.9433 755.464 100.75C756.197 101.557 756.564 102.583 756.564 103.83C756.564 105.077 756.124 106.103 755.244 106.91C754.364 107.643 753.264 108.01 751.944 108.01H749.634ZM722.244 57.41C721.144 57.41 720.227 57.08 719.494 56.42C718.76 55.6867 718.394 54.8067 718.394 53.78C718.394 52.68 718.76 51.8 719.494 51.14C720.227 50.4067 721.144 50.04 722.244 50.04H750.294C751.394 50.04 752.31 50.4067 753.044 51.14C753.777 51.8 754.144 52.68 754.144 53.78C754.144 54.8067 753.777 55.6867 753.044 56.42C752.31 57.08 751.394 57.41 750.294 57.41H722.244Z" fill="black"/>
<path d="M278.176 263.01C276.244 263.01 274.542 262.32 273.07 260.94C271.69 259.56 271 257.858 271 255.834V162.408C271 160.384 271.69 158.682 273.07 157.302C274.542 155.922 276.244 155.232 278.176 155.232C280.2 155.232 281.902 155.922 283.282 157.302C284.662 158.682 285.352 160.384 285.352 162.408V203.808L331.03 158.13C332.134 157.026 333.146 156.29 334.066 155.922C334.986 155.462 335.952 155.232 336.964 155.232C339.264 155.232 340.92 155.922 341.932 157.302C342.944 158.682 343.312 160.338 343.036 162.27C342.76 164.11 341.886 165.812 340.414 167.376L305.224 202.704L341.104 251.556C342.208 253.12 342.668 254.822 342.484 256.662C342.3 258.41 341.656 259.928 340.552 261.216C339.448 262.412 337.976 263.01 336.136 263.01C333.56 263.01 331.582 261.998 330.202 259.974L295.288 212.64L285.352 222.576V255.834C285.352 257.858 284.662 259.56 283.282 260.94C281.902 262.32 280.2 263.01 278.176 263.01Z" fill="black"/>
<path d="M388.91 263.562C381.274 263.562 374.466 261.952 368.486 258.732C362.598 255.42 357.952 250.912 354.548 245.208C351.236 239.412 349.58 232.788 349.58 225.336C349.58 217.792 351.144 211.168 354.272 205.464C357.492 199.668 361.908 195.16 367.52 191.94C373.132 188.628 379.572 186.972 386.84 186.972C394.016 186.972 400.18 188.582 405.332 191.802C410.484 194.93 414.394 199.3 417.062 204.912C419.822 210.432 421.202 216.826 421.202 224.094C421.202 225.842 420.604 227.314 419.408 228.51C418.212 229.614 416.694 230.166 414.854 230.166H359.24V219.126H414.44L408.782 222.99C408.69 218.39 407.77 214.296 406.022 210.708C404.274 207.028 401.79 204.13 398.57 202.014C395.35 199.898 391.44 198.84 386.84 198.84C381.596 198.84 377.088 199.99 373.316 202.29C369.636 204.59 366.83 207.764 364.898 211.812C362.966 215.768 362 220.276 362 225.336C362 230.396 363.15 234.904 365.45 238.86C367.75 242.816 370.924 245.944 374.972 248.244C379.02 250.544 383.666 251.694 388.91 251.694C391.762 251.694 394.66 251.188 397.604 250.176C400.64 249.072 403.078 247.83 404.918 246.45C406.298 245.438 407.77 244.932 409.334 244.932C410.99 244.84 412.416 245.3 413.612 246.312C415.176 247.692 416.004 249.21 416.096 250.866C416.188 252.522 415.452 253.948 413.888 255.144C410.76 257.628 406.85 259.652 402.158 261.216C397.558 262.78 393.142 263.562 388.91 263.562Z" fill="black"/>
<path d="M471.926 263.562C464.29 263.562 457.482 261.952 451.502 258.732C445.614 255.42 440.968 250.912 437.564 245.208C434.252 239.412 432.596 232.788 432.596 225.336C432.596 217.792 434.16 211.168 437.288 205.464C440.508 199.668 444.924 195.16 450.536 191.94C456.148 188.628 462.588 186.972 469.856 186.972C477.032 186.972 483.196 188.582 488.348 191.802C493.5 194.93 497.41 199.3 500.078 204.912C502.838 210.432 504.218 216.826 504.218 224.094C504.218 225.842 503.62 227.314 502.424 228.51C501.228 229.614 499.71 230.166 497.87 230.166H442.256V219.126H497.456L491.798 222.99C491.706 218.39 490.786 214.296 489.038 210.708C487.29 207.028 484.806 204.13 481.586 202.014C478.366 199.898 474.456 198.84 469.856 198.84C464.612 198.84 460.104 199.99 456.332 202.29C452.652 204.59 449.846 207.764 447.914 211.812C445.982 215.768 445.016 220.276 445.016 225.336C445.016 230.396 446.166 234.904 448.466 238.86C450.766 242.816 453.94 245.944 457.988 248.244C462.036 250.544 466.682 251.694 471.926 251.694C474.778 251.694 477.676 251.188 480.62 250.176C483.656 249.072 486.094 247.83 487.934 246.45C489.314 245.438 490.786 244.932 492.35 244.932C494.006 244.84 495.432 245.3 496.628 246.312C498.192 247.692 499.02 249.21 499.112 250.866C499.204 252.522 498.468 253.948 496.904 255.144C493.776 257.628 489.866 259.652 485.174 261.216C480.574 262.78 476.158 263.562 471.926 263.562Z" fill="black"/>
<path d="M529.209 295.302C527.185 295.302 525.483 294.612 524.103 293.232C522.815 291.944 522.171 290.288 522.171 288.264V225.336C522.263 218.068 523.965 211.536 527.277 205.74C530.589 199.944 535.097 195.39 540.801 192.078C546.505 188.674 552.945 186.972 560.121 186.972C567.389 186.972 573.875 188.674 579.579 192.078C585.283 195.39 589.791 199.944 593.103 205.74C596.507 211.536 598.209 218.068 598.209 225.336C598.209 232.604 596.645 239.136 593.517 244.932C590.481 250.636 586.295 255.19 580.959 258.594C575.623 261.906 569.597 263.562 562.881 263.562C557.453 263.562 552.439 262.458 547.839 260.25C543.331 257.95 539.467 254.868 536.247 251.004V288.264C536.247 290.288 535.603 291.944 534.315 293.232C533.027 294.612 531.325 295.302 529.209 295.302ZM560.121 251.142C564.813 251.142 568.999 250.038 572.679 247.83C576.359 245.53 579.257 242.448 581.373 238.584C583.581 234.628 584.685 230.212 584.685 225.336C584.685 220.368 583.581 215.952 581.373 212.088C579.257 208.132 576.359 205.05 572.679 202.842C568.999 200.542 564.813 199.392 560.121 199.392C555.521 199.392 551.335 200.542 547.563 202.842C543.883 205.05 540.985 208.132 538.869 212.088C536.753 215.952 535.695 220.368 535.695 225.336C535.695 230.212 536.753 234.628 538.869 238.584C540.985 242.448 543.883 245.53 547.563 247.83C551.335 250.038 555.521 251.142 560.121 251.142Z" fill="black"/>
<path d="M654.668 263.562C647.032 263.562 640.224 261.952 634.244 258.732C628.356 255.42 623.71 250.912 620.306 245.208C616.994 239.412 615.338 232.788 615.338 225.336C615.338 217.792 616.902 211.168 620.03 205.464C623.25 199.668 627.666 195.16 633.278 191.94C638.89 188.628 645.33 186.972 652.598 186.972C659.774 186.972 665.938 188.582 671.09 191.802C676.242 194.93 680.152 199.3 682.82 204.912C685.58 210.432 686.96 216.826 686.96 224.094C686.96 225.842 686.362 227.314 685.166 228.51C683.97 229.614 682.452 230.166 680.612 230.166H624.998V219.126H680.198L674.54 222.99C674.448 218.39 673.528 214.296 671.78 210.708C670.032 207.028 667.548 204.13 664.328 202.014C661.108 199.898 657.198 198.84 652.598 198.84C647.354 198.84 642.846 199.99 639.074 202.29C635.394 204.59 632.588 207.764 630.656 211.812C628.724 215.768 627.758 220.276 627.758 225.336C627.758 230.396 628.908 234.904 631.208 238.86C633.508 242.816 636.682 245.944 640.73 248.244C644.778 250.544 649.424 251.694 654.668 251.694C657.52 251.694 660.418 251.188 663.362 250.176C666.398 249.072 668.836 247.83 670.676 246.45C672.056 245.438 673.528 244.932 675.092 244.932C676.748 244.84 678.174 245.3 679.37 246.312C680.934 247.692 681.762 249.21 681.854 250.866C681.946 252.522 681.21 253.948 679.646 255.144C676.518 257.628 672.608 259.652 667.916 261.216C663.316 262.78 658.9 263.562 654.668 263.562Z" fill="black"/>
<path d="M711.675 215.814C711.675 210.294 713.009 205.372 715.677 201.048C718.437 196.632 722.117 193.136 726.717 190.56C731.317 187.984 736.377 186.696 741.897 186.696C747.417 186.696 751.511 187.616 754.179 189.456C756.939 191.204 757.997 193.32 757.353 195.804C757.077 197.092 756.525 198.104 755.697 198.84C754.961 199.484 754.087 199.898 753.075 200.082C752.063 200.266 750.959 200.22 749.763 199.944C743.875 198.748 738.585 198.656 733.893 199.668C729.201 200.68 725.475 202.566 722.715 205.326C720.047 208.086 718.713 211.582 718.713 215.814H711.675ZM711.813 263.01C709.605 263.01 707.903 262.458 706.707 261.354C705.511 260.158 704.913 258.41 704.913 256.11V194.424C704.913 192.216 705.511 190.514 706.707 189.318C707.903 188.122 709.605 187.524 711.813 187.524C714.113 187.524 715.815 188.122 716.919 189.318C718.115 190.422 718.713 192.124 718.713 194.424V256.11C718.713 258.318 718.115 260.02 716.919 261.216C715.815 262.412 714.113 263.01 711.813 263.01Z" fill="black"/>
<path fill-rule="evenodd" clip-rule="evenodd" d="M100 41C62.4446 41 32 71.4446 32 109V129H17C14.2386 129 12 131.239 12 134V255C12 266.046 20.9543 275 32 275H168C179.046 275 188 266.046 188 255V134C188 131.239 185.761 129 183 129H168V109C168 71.4446 137.555 41 100 41ZM61 110V129H139V110C139 88.4609 121.539 71 100 71C78.4609 71 61 88.4609 61 110ZM119 187C119 192.908 116.304 198.186 112.074 201.671L114.445 229.49C114.744 232.993 111.982 236 108.467 236H91.5331C88.0184 236 85.2563 232.993 85.5548 229.49L87.9258 201.671C83.6964 198.186 81 192.908 81 187C81 176.507 89.5066 168 100 168C110.493 168 119 176.507 119 187Z" fill="#F82F2F"/>
</svg>
